<?xml version="1.0" encoding="UTF-8" standalone="no"?>
<!-- Created with Inkscape (http://www.inkscape.org/) -->

<svg
   xmlns:dc="http://purl.org/dc/elements/1.1/"
   xmlns:cc="http://creativecommons.org/ns#"
   xmlns:rdf="http://www.w3.org/1999/02/22-rdf-syntax-ns#"
   xmlns:svg="http://www.w3.org/2000/svg"
   xmlns="http://www.w3.org/2000/svg"
   xmlns:sodipodi="http://sodipodi.sourceforge.net/DTD/sodipodi-0.dtd"
   xmlns:inkscape="http://www.inkscape.org/namespaces/inkscape"
   width="744.09448819"
   height="1052.3622047"
   id="svg2"
   version="1.1"
   inkscape:version="0.48.5 r10040"
   sodipodi:docname="bitcoin.org-logo.svg"
   inkscape:export-filename="/home/harding/bitcoin.org-logo.png"
   inkscape:export-xdpi="71.41713"
   inkscape:export-ydpi="71.41713">
  <defs
     id="defs4" />
  <sodipodi:namedview
     id="base"
     pagecolor="#ffffff"
     bordercolor="#666666"
     borderopacity="1.0"
     inkscape:pageopacity="0.0"
     inkscape:pageshadow="2"
     inkscape:zoom="1.4142136"
     inkscape:cx="494.74933"
     inkscape:cy="707.9243"
     inkscape:document-units="px"
     inkscape:current-layer="layer1"
     showgrid="false"
     inkscape:window-width="935"
     inkscape:window-height="710"
     inkscape:window-x="0"
     inkscape:window-y="0"
     inkscape:window-maximized="0" />
  <metadata
     id="metadata7">
    <rdf:RDF>
      <cc:Work
         rdf:about="">
        <dc:format>image/svg+xml</dc:format>
        <dc:type
           rdf:resource="http://purl.org/dc/dcmitype/StillImage" />
        <dc:title></dc:title>
      </cc:Work>
    </rdf:RDF>
  </metadata>
  <g
     inkscape:label="Layer 1"
     inkscape:groupmode="layer"
     id="layer1">
    <g
       id="g4395">
      <g
         style="font-size:40px;font-style:italic;font-variant:normal;font-weight:normal;font-stretch:normal;text-align:start;line-height:125%;letter-spacing:0px;word-spacing:0px;writing-mode:lr-tb;text-anchor:start;fill:#4d4d4d;fill-opacity:1;stroke:none;font-family:Ubuntu-Title;-inkscape-font-specification:Ubuntu-Title Italic"
         id="text2996">
        <path
           d="m 444.03981,327.58047 c -1.60001,2e-5 -3.13334,0.45335 -4.6,1.36 -2.72,1.60001 -4.45333,4.29334 -5.2,8.08 -0.77333,3.57334 -0.32,6.21333 1.36,7.92 1.22666,1.06666 2.77333,1.6 4.64,1.6 1.65333,0 3.22666,-0.42667 4.72,-1.28 2.71999,-1.6 4.47999,-4.34666 5.28,-8.24 0.71998,-3.62666 0.0533,-6.34665 -2,-8.16 -1.09335,-0.85332 -2.49334,-1.27998 -4.2,-1.28 m -5.72,9.76 0.08,-0.32 c 0.45333,-2.29333 1.33333,-3.81332 2.64,-4.56 0.74666,-0.42666 1.46666,-0.63999 2.16,-0.64 2.61332,10e-6 3.57332,1.73334 2.88,5.2 -0.72001,3.57334 -2.38668,5.36 -5,5.36 -2.50667,0 -3.42667,-1.68 -2.76,-5.04"
           style=""
           id="path4475" />
        <path
           d="m 463.25669,327.50047 c 2.93332,2e-5 4.89331,1.30668 5.88,3.92 0.26665,0.80001 0.10665,1.57334 -0.48,2.32 -0.61335,0.69334 -1.34668,1.01334 -2.2,0.96 -0.82668,-0.10666 -1.32002,-0.55999 -1.48,-1.36 -0.21335,-0.74666 -0.60002,-1.19999 -1.16,-1.36 -0.40001,-0.10666 -0.86668,-0.15999 -1.4,-0.16 -1.38668,10e-6 -2.40001,0.37334 -3.04,1.12 -0.08,0.10668 -0.18668,0.24001 -0.32,0.4 -0.37334,0.58668 -0.65334,1.20001 -0.84,1.84 l -1.84,9.2 c -0.16001,0.8 -0.60001,1.41333 -1.32,1.84 -0.85334,0.42666 -1.58667,0.42666 -2.2,0 -0.58667,-0.42667 -0.8,-1.04 -0.64,-1.84 l 1.84,-9.2 c 0.98666,-3.67999 3.07999,-6.05332 6.28,-7.12 0.93332,-0.37332 1.90665,-0.55998 2.92,-0.56"
           style=""
           id="path4477" />
      </g>
      <g
         style="font-size:67.02040863px;font-style:italic;font-variant:normal;font-weight:normal;font-stretch:normal;text-align:start;line-height:125%;letter-spacing:0px;word-spacing:0px;writing-mode:lr-tb;text-anchor:start;fill:#4d4d4d;fill-opacity:1;stroke:none;font-family:Ubuntu-Title;-inkscape-font-specification:Ubuntu-Title Italic"
         id="text3000">
        <path
           d="m 427.45343,346.54584 c -1.38509,-0.17872 -2.21168,-0.98297 -2.47976,-2.41274 0,-0.35744 0.0447,-0.75956 0.13405,-1.20636 l 0.067,-0.40213 c 0.26807,-1.42976 1.07232,-2.50209 2.41273,-3.21698 1.38508,-0.71487 2.56911,-0.71487 3.55208,0 1.02764,0.71489 1.40742,1.78722 1.13935,3.21698 l -0.067,0.40213 c -0.22341,1.16168 -0.8266,2.09997 -1.80955,2.81485 -0.89362,0.62553 -1.87658,0.89361 -2.9489,0.80425"
           style=""
           id="path4480" />
      </g>
      <g
         inkscape:export-ydpi="71.41713"
         inkscape:export-xdpi="71.41713"
         inkscape:export-filename="/home/harding/bco.png"
         transform="translate(-51.894925,-34.1735)"
         id="g3090">
        <g
           transform="matrix(0.61129216,0,0,0.61129216,170.80346,315.53734)"
           id="g3092">
          <path
             style="fill:#f7931a"
             inkscape:connector-curvature="0"
             d="m 258.845,82.989 c -4.274,17.143 -21.637,27.576 -38.782,23.301 -17.138,-4.274 -27.571,-21.638 -23.295,-38.78 4.272,-17.145 21.635,-27.579 38.775,-23.305 17.144,4.274 27.576,21.64 23.302,38.784 z"
             id="path3094" />
          <path
             style="fill:#ffffff"
             inkscape:connector-curvature="0"
             d="m 241.91,70.689 c 0.637,-4.258 -2.605,-6.547 -7.038,-8.074 l 1.438,-5.768 -3.511,-0.875 -1.4,5.616 c -0.923,-0.23 -1.871,-0.447 -2.813,-0.662 l 1.41,-5.653 -3.509,-0.875 -1.439,5.766 c -0.764,-0.174 -1.514,-0.346 -2.242,-0.527 l 0.004,-0.018 -4.842,-1.209 -0.934,3.75 c 0,0 2.605,0.597 2.55,0.634 1.422,0.355 1.679,1.296 1.636,2.042 l -1.638,6.571 c 0.098,0.025 0.225,0.061 0.365,0.117 -0.117,-0.029 -0.242,-0.061 -0.371,-0.092 l -2.296,9.205 c -0.174,0.432 -0.615,1.08 -1.609,0.834 0.035,0.051 -2.552,-0.637 -2.552,-0.637 l -1.743,4.019 4.569,1.139 c 0.85,0.213 1.683,0.436 2.503,0.646 l -1.453,5.834 3.507,0.875 1.439,-5.772 c 0.958,0.26 1.888,0.5 2.798,0.726 l -1.434,5.745 3.511,0.875 1.453,-5.823 c 5.987,1.133 10.489,0.676 12.384,-4.739 1.527,-4.36 -0.076,-6.875 -3.226,-8.515 2.294,-0.529 4.022,-2.038 4.483,-5.155 z m -8.022,11.249 c -1.085,4.36 -8.426,2.003 -10.806,1.412 l 1.928,-7.729 c 2.38,0.594 10.012,1.77 8.878,6.317 z m 1.086,-11.312 c -0.99,3.966 -7.1,1.951 -9.082,1.457 l 1.748,-7.01 c 1.982,0.494 8.365,1.416 7.334,5.553 z"
             id="path3096" />
          <g
             style="fill:#4d4d4d"
             id="g3098">
            <path
               inkscape:connector-curvature="0"
               d="m 289.581,62.613 c 2.595,0 4.837,0.465 6.721,1.378 1.893,0.922 3.455,2.164 4.708,3.726 1.236,1.57 2.156,3.405 2.75,5.508 0.59,2.109 0.886,4.376 0.886,6.803 0,3.728 -0.683,7.25 -2.062,10.57 -1.379,3.325 -3.25,6.209 -5.63,8.669 -2.378,2.457 -5.186,4.394 -8.424,5.825 -3.233,1.432 -6.748,2.148 -10.522,2.148 -0.488,0 -1.346,-0.014 -2.558,-0.039 -1.212,-0.025 -2.605,-0.15 -4.165,-0.361 -1.57,-0.219 -3.23,-0.543 -4.983,-0.977 -1.752,-0.426 -3.416,-1.023 -4.983,-1.781 l 14.012,-58.876 12.55,-1.945 -5.017,20.893 c 1.074,-0.484 2.156,-0.859 3.236,-1.132 1.081,-0.269 2.241,-0.409 3.481,-0.409 z m -10.527,34.671 c 1.89,0 3.671,-0.465 5.344,-1.378 1.678,-0.914 3.126,-2.148 4.339,-3.685 1.213,-1.544 2.173,-3.283 2.873,-5.226 0.7,-1.943 1.054,-3.97 1.054,-6.079 0,-2.591 -0.433,-4.612 -1.296,-6.073 -0.863,-1.455 -2.46,-2.187 -4.779,-2.187 -0.76,0 -1.739,0.145 -2.953,0.404 -1.218,0.275 -2.308,0.846 -3.285,1.705 l -5.342,22.188 c 0.322,0.057 0.607,0.111 0.85,0.162 0.238,0.055 0.501,0.094 0.763,0.121 0.277,0.031 0.594,0.047 0.977,0.047 0.383,0 0.862,0.001 1.455,0.001 z"
               id="path3100" />
            <path
               inkscape:connector-curvature="0"
               d="M 317.664,106.108 H 305.677 L 315.8,63.511 h 12.069 l -10.205,42.597 z m 5.833,-47.787 c -1.673,0 -3.19,-0.498 -4.536,-1.496 -1.357,-0.992 -2.029,-2.519 -2.029,-4.577 0,-1.132 0.23,-2.194 0.686,-3.196 0.463,-1 1.068,-1.861 1.826,-2.593 0.757,-0.726 1.634,-1.306 2.63,-1.743 1.002,-0.43 2.068,-0.645 3.204,-0.645 1.672,0 3.181,0.498 4.532,1.496 1.346,1.003 2.023,2.53 2.023,4.577 0,1.136 -0.229,2.202 -0.689,3.202 -0.457,1 -1.062,1.861 -1.82,2.593 -0.751,0.727 -1.636,1.305 -2.63,1.738 -1.003,0.437 -2.065,0.644 -3.197,0.644 z"
               id="path3102" />
            <path
               inkscape:connector-curvature="0"
               d="m 338.372,52.9 12.555,-1.945 -3.083,12.556 h 13.446 l -2.428,9.878 h -13.365 l -3.56,14.9 c -0.328,1.242 -0.514,2.402 -0.566,3.48 -0.059,1.083 0.078,2.013 0.402,2.796 0.322,0.785 0.901,1.39 1.741,1.818 0.836,0.435 2.033,0.654 3.603,0.654 1.293,0 2.553,-0.123 3.771,-0.367 1.211,-0.24 2.438,-0.574 3.68,-1.011 l 0.894,9.236 c -1.62,0.594 -3.374,1.105 -5.264,1.535 -1.893,0.436 -4.134,0.646 -6.724,0.646 -3.724,0 -6.611,-0.553 -8.668,-1.654 -2.054,-1.109 -3.506,-2.624 -4.375,-4.542 -0.857,-1.911 -1.24,-4.114 -1.133,-6.596 0.111,-2.488 0.486,-5.103 1.133,-7.857 L 338.372,52.9 z"
               id="path3104" />
            <path
               inkscape:connector-curvature="0"
               d="m 360.761,89.103 c 0,-3.669 0.594,-7.129 1.781,-10.368 1.185,-3.242 2.892,-6.077 5.107,-8.51 2.207,-2.421 4.896,-4.339 8.061,-5.747 3.15,-1.4 6.677,-2.106 10.564,-2.106 2.433,0 4.606,0.23 6.518,0.691 1.92,0.465 3.657,1.066 5.228,1.82 l -4.134,9.4 c -1.08,-0.438 -2.201,-0.824 -3.36,-1.174 -1.16,-0.357 -2.576,-0.529 -4.251,-0.529 -4.001,0 -7.164,1.379 -9.518,4.128 -2.345,2.751 -3.526,6.454 -3.526,11.099 0,2.753 0.594,4.979 1.786,6.682 1.186,1.703 3.377,2.55 6.558,2.55 1.57,0 3.085,-0.164 4.536,-0.484 1.462,-0.324 2.753,-0.732 3.89,-1.214 l 0.895,9.636 c -1.516,0.588 -3.188,1.119 -5.022,1.584 -1.838,0.449 -4.026,0.682 -6.563,0.682 -3.349,0 -6.184,-0.49 -8.503,-1.455 -2.32,-0.98 -4.237,-2.281 -5.747,-3.929 -1.518,-1.652 -2.608,-3.581 -3.282,-5.795 -0.674,-2.212 -1.018,-4.536 -1.018,-6.961 z"
               id="path3106" />
            <path
               inkscape:connector-curvature="0"
               d="m 414.009,107.241 c -2.861,0 -5.346,-0.436 -7.454,-1.299 -2.102,-0.863 -3.843,-2.074 -5.22,-3.644 -1.379,-1.562 -2.411,-3.413 -3.118,-5.546 -0.707,-2.132 -1.047,-4.493 -1.047,-7.08 0,-3.245 0.521,-6.489 1.574,-9.724 1.048,-3.242 2.603,-6.155 4.661,-8.744 2.042,-2.593 4.561,-4.713 7.527,-6.366 2.963,-1.642 6.371,-2.468 10.199,-2.468 2.809,0 5.281,0.437 7.418,1.3 2.127,0.861 3.879,2.082 5.264,3.644 1.37,1.57 2.411,3.413 3.111,5.549 0.705,2.128 1.053,4.495 1.053,7.084 0,3.235 -0.514,6.479 -1.534,9.724 -1.021,3.229 -2.536,6.149 -4.536,8.744 -1.996,2.589 -4.492,4.708 -7.49,6.354 -2.994,1.646 -6.466,2.472 -10.408,2.472 z M 420,72.579 c -1.777,0 -3.348,0.516 -4.693,1.535 -1.35,1.031 -2.484,2.327 -3.398,3.89 -0.924,1.57 -1.609,3.282 -2.072,5.143 -0.459,1.865 -0.684,3.628 -0.684,5.303 0,2.703 0.436,4.808 1.293,6.323 0.869,1.507 2.43,2.265 4.699,2.265 1.783,0 3.346,-0.512 4.699,-1.542 1.342,-1.023 2.477,-2.32 3.398,-3.886 0.918,-1.562 1.609,-3.279 2.072,-5.143 0.453,-1.859 0.684,-3.632 0.684,-5.304 0,-2.696 -0.434,-4.806 -1.299,-6.319 -0.864,-1.507 -2.432,-2.265 -4.699,-2.265 z"
               id="path3108" />
            <path
               inkscape:connector-curvature="0"
               d="m 451.043,106.108 h -11.997 l 10.123,-42.597 h 12.075 l -10.201,42.597 z m 5.824,-47.787 c -1.672,0 -3.188,-0.498 -4.532,-1.496 -1.35,-0.992 -2.028,-2.519 -2.028,-4.577 0,-1.132 0.233,-2.194 0.69,-3.196 0.457,-1 1.066,-1.861 1.824,-2.593 0.753,-0.726 1.638,-1.306 2.632,-1.743 0.996,-0.43 2.062,-0.645 3.194,-0.645 1.676,0 3.19,0.498 4.538,1.496 1.349,1.003 2.03,2.53 2.03,4.577 0,1.136 -0.242,2.202 -0.695,3.202 -0.453,1 -1.062,1.861 -1.817,2.593 -0.76,0.727 -1.634,1.305 -2.63,1.738 -1.004,0.437 -2.068,0.644 -3.206,0.644 z"
               id="path3110" />
            <path
               inkscape:connector-curvature="0"
               d="m 469.878,65.452 c 0.91,-0.266 1.926,-0.586 3.031,-0.934 1.109,-0.348 2.348,-0.672 3.732,-0.964 1.369,-0.301 2.914,-0.545 4.613,-0.734 1.699,-0.193 3.635,-0.287 5.786,-0.287 6.322,0 10.68,1.841 13.086,5.512 2.404,3.671 2.82,8.695 1.26,15.063 l -5.514,23 h -12.066 l 5.344,-22.516 c 0.326,-1.406 0.582,-2.765 0.771,-4.093 0.191,-1.316 0.18,-2.476 -0.043,-3.48 -0.213,-0.992 -0.715,-1.804 -1.494,-2.433 -0.791,-0.619 -1.986,-0.93 -3.607,-0.93 -1.563,0 -3.153,0.168 -4.776,0.492 l -7.857,32.959 h -12.071 l 9.805,-40.655 z"
               id="path3112" />
          </g>
        </g>
      </g>
      <g
         style="font-size:32px;font-style:italic;font-variant:normal;font-weight:normal;font-stretch:normal;text-align:start;line-height:125%;letter-spacing:0px;word-spacing:0px;writing-mode:lr-tb;text-anchor:start;fill:#4d4d4d;fill-opacity:1;stroke:none;font-family:Ubuntu-Title;-inkscape-font-specification:Ubuntu-Title Italic"
         id="text3902">
        <path
           d="m 481.30496,340.3595 1.312,-6.528 c 0.53332,-2.60266 0.18132,-4.56532 -1.056,-5.888 -0.83201,-0.76799 -1.90934,-1.15199 -3.232,-1.152 -1.32267,1e-5 -2.56001,0.34135 -3.712,1.024 -1.792,1.02401 -3.08267,2.68801 -3.872,4.992 -0.192,0.51201 -0.34133,1.04534 -0.448,1.6 -0.55467,2.73067 -0.13867,4.8 1.248,6.208 l 0.416,0.384 c 0.896,0.68267 1.87733,1.024 2.944,1.024 1.00266,-0.0853 1.94133,-0.29867 2.816,-0.64 -0.38401,1.536 -0.83201,2.47466 -1.344,2.816 -0.34134,0.21333 -1.17334,0.32 -2.496,0.32 -0.32,-0.0427 -0.61867,-0.10667 -0.896,-0.192 l -0.704,-0.384 0.032,0.192 c -0.23467,-0.55467 -0.672,-0.832 -1.312,-0.832 -0.68267,0 -1.23733,0.29866 -1.664,0.896 -0.40533,0.59733 -0.49067,1.152 -0.256,1.664 0.29867,0.81066 0.91733,1.36533 1.856,1.664 0.27733,0.0427 0.43733,0.064 0.48,0.064 l 1.408,0.32 0.256,0 c 1.57866,-10e-6 2.70933,-0.10667 3.392,-0.32 0.51199,-0.21334 1.01332,-0.46934 1.504,-0.768 1.62132,-1.23734 2.73066,-3.392 3.328,-6.464 m -3.712,-10.176 c 0.42666,1e-5 0.76799,0.10668 1.024,0.32 0.81066,0.42668 1.03466,1.53601 0.672,3.328 l -0.416,2.048 c -0.21334,1.10934 -0.68268,1.856 -1.408,2.24 l -0.32,0.064 c -0.51201,0.256 -1.03467,0.40534 -1.568,0.448 -1.728,-0.256 -2.37867,-1.6 -1.952,-4.032 l 0.064,-0.192 c 0.36266,-1.83466 1.09866,-3.09332 2.208,-3.776 0.53333,-0.25599 0.99199,-0.38399 1.376,-0.384 0.0853,10e-6 0.14932,-0.0213 0.192,-0.064 l 0.128,0"
           style=""
           id="path4483" />
      </g>
      <g
         style="font-size:16px;font-style:italic;font-variant:normal;font-weight:normal;font-stretch:normal;text-align:start;line-height:125%;letter-spacing:0px;word-spacing:0px;writing-mode:lr-tb;text-anchor:start;fill:#4d4d4d;fill-opacity:1;stroke:none;font-family:Ubuntu-Title;-inkscape-font-specification:Ubuntu-Title Italic"
         id="text3925">
        <path
           d="m 245.08166,349.30428 c 0.256,10e-6 0.448,0.0854 0.576,0.256 0.13866,0.17068 0.176,0.37335 0.112,0.608 l -0.448,2.208 1.056,0 c 0.34133,10e-6 0.57066,0.14934 0.688,0.448 0.11733,0.25601 0.0587,0.53334 -0.176,0.832 -0.224,0.29868 -0.50667,0.43734 -0.848,0.416 l -1.056,0 -0.656,3.328 c -0.064,0.32001 -0.0533,0.53334 0.032,0.64 0.0427,0.0853 0.13867,0.13867 0.288,0.16 0.14933,0.064 0.36267,0.0533 0.64,-0.032 0.36266,-0.10666 0.64533,-0.032 0.848,0.224 0.17066,0.21334 0.18133,0.49067 0.032,0.832 -0.14934,0.32 -0.39467,0.52267 -0.736,0.608 l -0.624,0.096 c -0.94933,0.064 -1.6,-0.192 -1.952,-0.768 -0.29867,-0.448 -0.37333,-1.03466 -0.224,-1.76 l 0.656,-3.328 -0.512,0 c -0.34133,0.0213 -0.56,-0.11732 -0.656,-0.416 -0.10667,-0.29866 -0.048,-0.57599 0.176,-0.832 0.20267,-0.29866 0.47467,-0.44799 0.816,-0.448 l 0.512,0 0.448,-2.208 c 0.064,-0.34132 0.26667,-0.60799 0.608,-0.8 0.13867,-0.0427 0.272,-0.064 0.4,-0.064"
           style=""
           id="path4486" />
        <path
           d="m 247.12491,359.03228 1.776,-8.832 c 0.064,-0.34132 0.26667,-0.60799 0.608,-0.8 0.128,-0.0427 0.256,-0.064 0.384,-0.064 0.256,1e-5 0.448,0.0747 0.576,0.224 0.128,0.17068 0.17066,0.38401 0.128,0.64 l -0.496,2.432 c 0.49067,-0.21332 0.96,-0.31999 1.408,-0.32 1.04533,1e-5 1.77066,0.37334 2.176,1.12 0.35199,0.57601 0.44799,1.21601 0.288,1.92 l -0.736,3.68 c -0.0427,0.34134 -0.22934,0.59734 -0.56,0.768 -0.33067,0.14934 -0.608,0.14934 -0.832,0 -0.26667,-0.17066 -0.368,-0.42666 -0.304,-0.768 l 0.736,-3.68 c 0.064,-0.72532 -0.10667,-1.15199 -0.512,-1.28 -0.13867,-0.064 -0.336,-0.096 -0.592,-0.096 -0.53334,1e-5 -0.91733,0.17068 -1.152,0.512 -0.23467,0.34134 -0.38933,0.62934 -0.464,0.864 l -0.736,3.68 c -0.0853,0.42667 -0.34133,0.704 -0.768,0.832 -0.36267,0.0853 -0.64533,0 -0.848,-0.256 -0.096,-0.14933 -0.12266,-0.34133 -0.08,-0.576"
           style=""
           id="path4488" />
        <path
           d="m 258.15716,358.16828 -0.288,0 c -0.68267,-0.10666 -1.024,-0.52266 -1.024,-1.248 l 3.488,0 c 0.384,1e-5 0.672,-0.17066 0.864,-0.512 0.064,-0.10666 0.10666,-0.21333 0.128,-0.32 l 0.064,-0.32 c 0.29866,-1.49332 0,-2.55999 -0.896,-3.2 -0.34134,-0.21332 -0.75734,-0.31999 -1.248,-0.32 -0.66134,10e-6 -1.28533,0.18134 -1.872,0.544 -1.056,0.61868 -1.76533,1.65334 -2.128,3.104 -0.0427,0.12801 -0.064,0.24534 -0.064,0.352 -0.21333,1.38667 0.08,2.42134 0.88,3.104 0.43733,0.36267 0.92267,0.544 1.456,0.544 0.74667,0.0213 1.28533,0 1.616,-0.064 0.46933,-0.10666 0.88,-0.288 1.232,-0.544 0.32,-0.192 0.48,-0.448 0.48,-0.768 0.0213,-0.34133 -0.096,-0.57599 -0.352,-0.704 -0.29867,-0.10666 -0.59734,-0.0533 -0.896,0.16 -0.21334,0.12801 -0.69334,0.19201 -1.44,0.192 m 0.704,-4.192 c 0.21333,1e-5 0.38933,0.0427 0.528,0.128 0.30933,0.17068 0.45333,0.52268 0.432,1.056 l -0.016,0.064 -2.624,0 c 0.18133,-0.46932 0.464,-0.82132 0.848,-1.056 0.256,-0.12799 0.48,-0.19199 0.672,-0.192 l 0.096,0 0.064,0"
           style=""
           id="path4490" />
        <path
           d="m 272.10266,352.31228 c 0.66133,1e-5 1.22666,0.17068 1.696,0.512 0.23466,0.19201 0.32,0.44801 0.256,0.768 -0.10667,0.34134 -0.32534,0.58668 -0.656,0.736 -0.32,0.12801 -0.592,0.096 -0.816,-0.096 -0.20267,-0.12799 -0.47467,-0.19199 -0.816,-0.192 -0.27734,1e-5 -0.56,0.0747 -0.848,0.224 -0.53333,0.32001 -0.89067,0.92801 -1.072,1.824 l 0,0.032 c -0.192,0.96001 -0.096,1.58934 0.288,1.888 0.20267,0.14934 0.464,0.22401 0.784,0.224 0.34133,10e-6 0.64533,-0.0747 0.912,-0.224 0.29866,-0.21333 0.58133,-0.24533 0.848,-0.096 0.26666,0.14934 0.38933,0.39467 0.368,0.736 -0.064,0.34134 -0.25067,0.58667 -0.56,0.736 -0.608,0.36267 -1.24267,0.544 -1.904,0.544 -0.66133,0 -1.20533,-0.17066 -1.632,-0.512 -0.85333,-0.61866 -1.12,-1.72799 -0.8,-3.328 0.27733,-1.36532 0.896,-2.38932 1.856,-3.072 0.62933,-0.46932 1.328,-0.70399 2.096,-0.704"
           style=""
           id="path4492" />
        <path
           d="m 278.79016,352.34428 c -0.64,10e-6 -1.25333,0.18134 -1.84,0.544 -1.088,0.64001 -1.78133,1.71734 -2.08,3.232 -0.30933,1.42934 -0.128,2.48534 0.544,3.168 0.49067,0.42667 1.10933,0.64 1.856,0.64 0.66133,0 1.29066,-0.17066 1.888,-0.512 1.088,-0.64 1.792,-1.73866 2.112,-3.296 0.28799,-1.45066 0.0213,-2.53866 -0.8,-3.264 -0.43734,-0.34132 -0.99734,-0.51199 -1.68,-0.512 m -2.288,3.904 0.032,-0.128 c 0.18133,-0.91732 0.53333,-1.52532 1.056,-1.824 0.29867,-0.17066 0.58666,-0.25599 0.864,-0.256 1.04533,1e-5 1.42933,0.69334 1.152,2.08 -0.288,1.42934 -0.95467,2.14401 -2,2.144 -1.00267,1e-5 -1.37067,-0.67199 -1.104,-2.016"
           style=""
           id="path4494" />
        <path
           d="m 285.90091,352.28028 c 0.72533,10e-6 1.296,0.22401 1.712,0.672 0.608,-0.44799 1.264,-0.67199 1.968,-0.672 0.89599,10e-6 1.53599,0.32001 1.92,0.96 0.29866,0.49068 0.37866,1.04534 0.24,1.664 l -0.832,4.128 c -0.064,0.32 -0.25067,0.56534 -0.56,0.736 -0.30934,0.17067 -0.59734,0.17067 -0.864,0 -0.24534,-0.17066 -0.33601,-0.416 -0.272,-0.736 l 0.832,-4.128 c 0.0213,-0.45866 -0.0907,-0.74666 -0.336,-0.864 -0.10667,-0.0427 -0.26667,-0.064 -0.48,-0.064 -0.40534,1e-5 -0.69334,0.10668 -0.864,0.32 -0.13867,0.19201 -0.24,0.39468 -0.304,0.608 l -0.352,1.776 c -0.064,0.32001 -0.256,0.56534 -0.576,0.736 -0.30934,0.17067 -0.59734,0.17067 -0.864,0 -0.24534,-0.14933 -0.33067,-0.39466 -0.256,-0.736 l 0.352,-1.776 c 0.0213,-0.45866 -0.0907,-0.74666 -0.336,-0.864 -0.10667,-0.0427 -0.26667,-0.064 -0.48,-0.064 -0.384,1e-5 -0.66133,0.10668 -0.832,0.32 -0.17067,0.22401 -0.28267,0.42668 -0.336,0.608 l -0.832,4.128 c -0.0427,0.32 -0.22933,0.56534 -0.56,0.736 -0.30933,0.17067 -0.59733,0.17067 -0.864,0 -0.24533,-0.17066 -0.336,-0.416 -0.272,-0.736 l 0.832,-4.128 c 0.352,-1.32266 1.11467,-2.15466 2.288,-2.496 0.29867,-0.0853 0.608,-0.12799 0.928,-0.128"
           style=""
           id="path4496" />
        <path
           d="m 295.93216,352.28028 c 0.72533,10e-6 1.296,0.22401 1.712,0.672 0.608,-0.44799 1.264,-0.67199 1.968,-0.672 0.89599,10e-6 1.53599,0.32001 1.92,0.96 0.29866,0.49068 0.37866,1.04534 0.24,1.664 l -0.832,4.128 c -0.064,0.32 -0.25067,0.56534 -0.56,0.736 -0.30934,0.17067 -0.59734,0.17067 -0.864,0 -0.24534,-0.17066 -0.33601,-0.416 -0.272,-0.736 l 0.832,-4.128 c 0.0213,-0.45866 -0.0907,-0.74666 -0.336,-0.864 -0.10667,-0.0427 -0.26667,-0.064 -0.48,-0.064 -0.40534,1e-5 -0.69334,0.10668 -0.864,0.32 -0.13867,0.19201 -0.24,0.39468 -0.304,0.608 l -0.352,1.776 c -0.064,0.32001 -0.256,0.56534 -0.576,0.736 -0.30934,0.17067 -0.59734,0.17067 -0.864,0 -0.24534,-0.14933 -0.33067,-0.39466 -0.256,-0.736 l 0.352,-1.776 c 0.0213,-0.45866 -0.0907,-0.74666 -0.336,-0.864 -0.10667,-0.0427 -0.26667,-0.064 -0.48,-0.064 -0.384,1e-5 -0.66133,0.10668 -0.832,0.32 -0.17067,0.22401 -0.28267,0.42668 -0.336,0.608 l -0.832,4.128 c -0.0427,0.32 -0.22933,0.56534 -0.56,0.736 -0.30933,0.17067 -0.59733,0.17067 -0.864,0 -0.24533,-0.17066 -0.336,-0.416 -0.272,-0.736 l 0.832,-4.128 c 0.352,-1.32266 1.11467,-2.15466 2.288,-2.496 0.29867,-0.0853 0.608,-0.12799 0.928,-0.128"
           style=""
           id="path4498" />
        <path
           d="m 304.29941,352.31228 c 0.23467,1e-5 0.432,0.0853 0.592,0.256 0.13867,0.17068 0.18133,0.38401 0.128,0.64 l -0.736,3.648 c -0.0533,0.29867 -0.048,0.54401 0.016,0.736 0.096,0.27734 0.24,0.45867 0.432,0.544 0.18133,0.064 0.38933,0.096 0.624,0.096 0.53333,10e-6 0.928,-0.15999 1.184,-0.48 l 0.128,-0.16 c 0.16,-0.23466 0.26133,-0.47999 0.304,-0.736 l 0.736,-3.648 c 0.064,-0.34132 0.26133,-0.59732 0.592,-0.768 0.34133,-0.17066 0.624,-0.17066 0.848,0 0.25599,0.17068 0.35199,0.42668 0.288,0.768 l -0.736,3.648 c -0.416,1.47201 -1.26934,2.432 -2.56,2.88 -0.36267,0.128 -0.736,0.192 -1.12,0.192 -1.024,0 -1.74933,-0.384 -2.176,-1.152 -0.0747,-0.128 -0.13867,-0.26666 -0.192,-0.416 -0.16,-0.49066 -0.192,-0.99199 -0.096,-1.504 l 0.736,-3.648 c 0.0747,-0.38399 0.288,-0.65066 0.64,-0.8 0.11733,-0.064 0.24,-0.096 0.368,-0.096"
           style=""
           id="path4500" />
        <path
           d="m 310.46841,355.44828 c 0.14933,-0.74666 0.50133,-1.39732 1.056,-1.952 0.672,-0.68266 1.52,-1.02399 2.544,-1.024 1.504,0.14934 2.31466,0.84268 2.432,2.08 0.0107,0.27734 -0.005,0.57601 -0.048,0.896 l -0.736,3.648 c -0.064,0.34134 -0.272,0.58667 -0.624,0.736 -0.13867,0.064 -0.26134,0.096 -0.368,0.096 -0.36267,0 -0.576,-0.17066 -0.64,-0.512 -0.0213,-0.10666 -0.0213,-0.21333 0,-0.32 l 0.736,-3.648 c 0.11733,-0.78932 -0.24534,-1.22666 -1.088,-1.312 -0.72533,10e-6 -1.22667,0.34134 -1.504,1.024 -0.0427,0.10668 -0.0747,0.20267 -0.096,0.288 l -0.736,3.648 c -0.064,0.34134 -0.28267,0.58667 -0.656,0.736 -0.096,0.064 -0.208,0.096 -0.336,0.096 -0.36267,0 -0.58666,-0.17066 -0.672,-0.512 -0.0213,-0.10666 -0.0213,-0.21333 0,-0.32 l 0.736,-3.648"
           style=""
           id="path4502" />
        <path
           d="m 320.01716,349.24028 c -0.37333,0.0427 -0.65067,0.23468 -0.832,0.576 -0.0533,0.0854 -0.0907,0.18135 -0.112,0.288 l -0.032,0.128 c -0.064,0.32001 0.0267,0.56535 0.272,0.736 0.24533,0.17068 0.53333,0.17068 0.864,0 0.30933,-0.17065 0.496,-0.41599 0.56,-0.736 l 0.032,-0.128 c 0.0533,-0.25599 0,-0.47999 -0.16,-0.672 -0.16,-0.17065 -0.35733,-0.23465 -0.592,-0.192 m -0.56,3.072 c -0.36267,1e-5 -0.64,0.17068 -0.832,0.512 -0.0853,0.10668 -0.144,0.22401 -0.176,0.352 l -1.168,5.888 c -0.064,0.32 0.0213,0.56534 0.256,0.736 0.24533,0.17067 0.53867,0.17067 0.88,0 0.30933,-0.17066 0.496,-0.416 0.56,-0.736 l 1.168,-5.888 c 0.0533,-0.23466 0.0107,-0.43732 -0.128,-0.608 -0.11733,-0.17066 -0.304,-0.25599 -0.56,-0.256"
           style=""
           id="path4504" />
        <path
           d="m 324.05041,349.30428 c 0.256,10e-6 0.448,0.0854 0.576,0.256 0.13866,0.17068 0.176,0.37335 0.112,0.608 l -0.448,2.208 1.056,0 c 0.34133,10e-6 0.57066,0.14934 0.688,0.448 0.11733,0.25601 0.0587,0.53334 -0.176,0.832 -0.224,0.29868 -0.50667,0.43734 -0.848,0.416 l -1.056,0 -0.656,3.328 c -0.064,0.32001 -0.0533,0.53334 0.032,0.64 0.0427,0.0853 0.13867,0.13867 0.288,0.16 0.14933,0.064 0.36267,0.0533 0.64,-0.032 0.36266,-0.10666 0.64533,-0.032 0.848,0.224 0.17066,0.21334 0.18133,0.49067 0.032,0.832 -0.14934,0.32 -0.39467,0.52267 -0.736,0.608 l -0.624,0.096 c -0.94933,0.064 -1.6,-0.192 -1.952,-0.768 -0.29867,-0.448 -0.37333,-1.03466 -0.224,-1.76 l 0.656,-3.328 -0.512,0 c -0.34133,0.0213 -0.56,-0.11732 -0.656,-0.416 -0.10667,-0.29866 -0.048,-0.57599 0.176,-0.832 0.20267,-0.29866 0.47467,-0.44799 0.816,-0.448 l 0.512,0 0.448,-2.208 c 0.064,-0.34132 0.26667,-0.60799 0.608,-0.8 0.13867,-0.0427 0.272,-0.064 0.4,-0.064"
           style=""
           id="path4506" />
        <path
           d="m 333.34166,353.17628 -1.248,6.272 c -0.256,1.28 -0.71467,2.18667 -1.376,2.72 -0.544,0.46933 -1.328,0.704 -2.352,0.704 -1.00267,0.128 -1.86133,-0.0533 -2.576,-0.544 -0.24533,-0.17067 -0.336,-0.416 -0.272,-0.736 0.0747,-0.34133 0.272,-0.58666 0.592,-0.736 0.32,-0.17066 0.59733,-0.16 0.832,0.032 0.29867,0.192 0.85333,0.288 1.664,0.288 l 0.064,0 c 0.55467,0 0.92267,-0.0747 1.104,-0.224 0.224,-0.17066 0.41066,-0.61866 0.56,-1.344 -0.66134,0.29867 -1.31733,0.384 -1.968,0.256 -1.29067,-0.36266 -1.904,-1.34399 -1.84,-2.944 0,-0.25599 0.032,-0.52266 0.096,-0.8 l 0.576,-2.944 c 0.0853,-0.38399 0.30933,-0.65066 0.672,-0.8 0.096,-0.0427 0.208,-0.064 0.336,-0.064 0.256,1e-5 0.45333,0.0853 0.592,0.256 0.13867,0.17068 0.18133,0.37334 0.128,0.608 l -0.576,2.944 c -0.192,0.91734 -0.0853,1.54667 0.32,1.888 0.18133,0.14934 0.37867,0.22401 0.592,0.224 0.288,-0.0213 0.53866,-0.096 0.752,-0.224 0.32,-0.12799 0.544,-0.29866 0.672,-0.512 0.0853,-0.17066 0.14933,-0.38399 0.192,-0.64 l 0.736,-3.68 c 0.064,-0.31999 0.26666,-0.57599 0.608,-0.768 0.33066,-0.14932 0.608,-0.14932 0.832,0 0.25599,0.19201 0.35199,0.44801 0.288,0.768"
           style=""
           id="path4508" />
        <path
           d="m 337.57991,349.88028 c 0.256,-0.0213 0.464,0.0533 0.624,0.224 0.128,0.19201 0.15466,0.41601 0.08,0.672 l -0.304,1.536 c -0.0747,0.36268 -0.27734,0.62934 -0.608,0.8 -0.30934,0.19201 -0.608,0.19201 -0.896,0 -0.26667,-0.17066 -0.36267,-0.43732 -0.288,-0.8 l 0.304,-1.536 c 0.0533,-0.25599 0.192,-0.46932 0.416,-0.64 0.192,-0.17065 0.416,-0.25599 0.672,-0.256"
           style=""
           id="path4510" />
        <path
           d="m 343.35216,352.28028 c 0.61866,10e-6 1.12533,0.11734 1.52,0.352 0.65066,0.40534 0.86933,0.86401 0.656,1.376 -0.10667,0.32001 -0.352,0.53334 -0.736,0.64 -0.34134,0.0853 -0.592,0.0107 -0.752,-0.224 -0.21334,-0.44799 -0.656,-0.62932 -1.328,-0.544 -0.0427,10e-6 -0.08,0.0107 -0.112,0.032 -0.37333,0.0427 -0.656,0.22401 -0.848,0.544 -0.096,0.17068 -0.10667,0.35201 -0.032,0.544 0.21333,0.17068 0.61333,0.24534 1.2,0.224 0.34133,10e-6 0.592,0.0213 0.752,0.064 0.672,0.064 1.15733,0.40534 1.456,1.024 0.20266,0.38401 0.25066,0.80001 0.144,1.248 -0.11734,0.68267 -0.512,1.248 -1.184,1.696 -0.26667,0.17067 -0.53334,0.29867 -0.8,0.384 -1.20533,0.36267 -2.208,0.36267 -3.008,0 -0.64,-0.34133 -0.976,-0.74666 -1.008,-1.216 -0.0107,-0.36266 0.18667,-0.65066 0.592,-0.864 0.384,-0.21333 0.688,-0.20266 0.912,0.032 0.0427,0.0213 0.0693,0.0427 0.08,0.064 0.27733,0.46934 0.88533,0.62934 1.824,0.48 0.37333,-0.0213 0.65066,-0.15999 0.832,-0.416 0.10666,-0.14933 0.13866,-0.30933 0.096,-0.48 -0.14934,-0.21333 -0.46933,-0.31999 -0.96,-0.32 -1.07733,0.0427 -1.81333,-0.17066 -2.208,-0.64 -0.448,-0.44799 -0.576,-1.03466 -0.384,-1.76 0.0853,-0.46932 0.304,-0.88532 0.656,-1.248 0.62933,-0.68266 1.488,-1.01332 2.576,-0.992 l 0.064,0"
           style=""
           id="path4512" />
        <path
           d="m 356.07141,352.34428 c -0.64,10e-6 -1.25333,0.18134 -1.84,0.544 -1.088,0.64001 -1.78133,1.71734 -2.08,3.232 -0.30933,1.42934 -0.128,2.48534 0.544,3.168 0.49067,0.42667 1.10933,0.64 1.856,0.64 0.66133,0 1.29066,-0.17066 1.888,-0.512 1.088,-0.64 1.792,-1.73866 2.112,-3.296 0.28799,-1.45066 0.0213,-2.53866 -0.8,-3.264 -0.43734,-0.34132 -0.99734,-0.51199 -1.68,-0.512 m -2.288,3.904 0.032,-0.128 c 0.18133,-0.91732 0.53333,-1.52532 1.056,-1.824 0.29867,-0.17066 0.58666,-0.25599 0.864,-0.256 1.04533,1e-5 1.42933,0.69334 1.152,2.08 -0.288,1.42934 -0.95467,2.14401 -2,2.144 -1.00267,1e-5 -1.37067,-0.67199 -1.104,-2.016"
           style=""
           id="path4514" />
        <path
           d="m 363.82216,352.34428 -0.096,0 c -0.52267,-0.0427 -1.04533,0.064 -1.568,0.32 -0.8,0.38401 -1.408,1.07734 -1.824,2.08 -0.16,0.34134 -0.27733,0.70401 -0.352,1.088 l -1.232,6.208 c -0.064,0.32 0.0107,0.56533 0.224,0.736 0.26667,0.17067 0.56534,0.17067 0.896,0 0.29867,-0.17067 0.48,-0.416 0.544,-0.736 l 0.48,-2.432 c 0.42667,0.21334 0.864,0.32 1.312,0.32 0.62933,-0.064 1.184,-0.23466 1.664,-0.512 0.896,-0.53333 1.54666,-1.37599 1.952,-2.528 0.064,-0.23466 0.128,-0.49066 0.192,-0.768 0.29866,-1.51466 0.0213,-2.60266 -0.832,-3.264 -0.384,-0.31999 -0.84267,-0.47999 -1.376,-0.48 l 0.016,-0.032 m -2.384,4.512 0.208,-1.024 c 0.18133,-0.89599 0.51733,-1.45066 1.008,-1.664 0.21333,-0.10666 0.42666,-0.14932 0.64,-0.128 0.0427,1e-5 0.0747,1e-5 0.096,0 l 0.336,0.064 c 0.59733,0.29868 0.79466,0.97068 0.592,2.016 -0.192,0.91734 -0.55467,1.54667 -1.088,1.888 -0.24534,0.14934 -0.47467,0.22401 -0.688,0.224 -0.68267,-0.10666 -1.06133,-0.35199 -1.136,-0.736 -0.0213,-0.17066 -0.0107,-0.38399 0.032,-0.64"
           style=""
           id="path4516" />
        <path
           d="m 370.25091,358.16828 -0.288,0 c -0.68267,-0.10666 -1.024,-0.52266 -1.024,-1.248 l 3.488,0 c 0.384,1e-5 0.672,-0.17066 0.864,-0.512 0.064,-0.10666 0.10666,-0.21333 0.128,-0.32 l 0.064,-0.32 c 0.29866,-1.49332 0,-2.55999 -0.896,-3.2 -0.34134,-0.21332 -0.75734,-0.31999 -1.248,-0.32 -0.66134,10e-6 -1.28533,0.18134 -1.872,0.544 -1.056,0.61868 -1.76533,1.65334 -2.128,3.104 -0.0427,0.12801 -0.064,0.24534 -0.064,0.352 -0.21333,1.38667 0.08,2.42134 0.88,3.104 0.43733,0.36267 0.92267,0.544 1.456,0.544 0.74667,0.0213 1.28533,0 1.616,-0.064 0.46933,-0.10666 0.88,-0.288 1.232,-0.544 0.32,-0.192 0.48,-0.448 0.48,-0.768 0.0213,-0.34133 -0.096,-0.57599 -0.352,-0.704 -0.29867,-0.10666 -0.59734,-0.0533 -0.896,0.16 -0.21334,0.12801 -0.69334,0.19201 -1.44,0.192 m 0.704,-4.192 c 0.21333,1e-5 0.38933,0.0427 0.528,0.128 0.30933,0.17068 0.45333,0.52268 0.432,1.056 l -0.016,0.064 -2.624,0 c 0.18133,-0.46932 0.464,-0.82132 0.848,-1.056 0.256,-0.12799 0.48,-0.19199 0.672,-0.192 l 0.096,0 0.064,0"
           style=""
           id="path4518" />
        <path
           d="m 375.06216,355.44828 c 0.14933,-0.74666 0.50133,-1.39732 1.056,-1.952 0.672,-0.68266 1.52,-1.02399 2.544,-1.024 1.504,0.14934 2.31466,0.84268 2.432,2.08 0.0107,0.27734 -0.005,0.57601 -0.048,0.896 l -0.736,3.648 c -0.064,0.34134 -0.272,0.58667 -0.624,0.736 -0.13867,0.064 -0.26134,0.096 -0.368,0.096 -0.36267,0 -0.576,-0.17066 -0.64,-0.512 -0.0213,-0.10666 -0.0213,-0.21333 0,-0.32 l 0.736,-3.648 c 0.11733,-0.78932 -0.24534,-1.22666 -1.088,-1.312 -0.72533,10e-6 -1.22667,0.34134 -1.504,1.024 -0.0427,0.10668 -0.0747,0.20267 -0.096,0.288 l -0.736,3.648 c -0.064,0.34134 -0.28267,0.58667 -0.656,0.736 -0.096,0.064 -0.208,0.096 -0.336,0.096 -0.36267,0 -0.58666,-0.17066 -0.672,-0.512 -0.0213,-0.10666 -0.0213,-0.21333 0,-0.32 l 0.736,-3.648"
           style=""
           id="path4520" />
        <path
           d="m 390.97716,352.28028 c 0.61866,10e-6 1.12533,0.11734 1.52,0.352 0.65066,0.40534 0.86933,0.86401 0.656,1.376 -0.10667,0.32001 -0.352,0.53334 -0.736,0.64 -0.34134,0.0853 -0.592,0.0107 -0.752,-0.224 -0.21334,-0.44799 -0.656,-0.62932 -1.328,-0.544 -0.0427,10e-6 -0.08,0.0107 -0.112,0.032 -0.37333,0.0427 -0.656,0.22401 -0.848,0.544 -0.096,0.17068 -0.10667,0.35201 -0.032,0.544 0.21333,0.17068 0.61333,0.24534 1.2,0.224 0.34133,10e-6 0.592,0.0213 0.752,0.064 0.672,0.064 1.15733,0.40534 1.456,1.024 0.20266,0.38401 0.25066,0.80001 0.144,1.248 -0.11734,0.68267 -0.512,1.248 -1.184,1.696 -0.26667,0.17067 -0.53334,0.29867 -0.8,0.384 -1.20533,0.36267 -2.208,0.36267 -3.008,0 -0.64,-0.34133 -0.976,-0.74666 -1.008,-1.216 -0.0107,-0.36266 0.18667,-0.65066 0.592,-0.864 0.384,-0.21333 0.688,-0.20266 0.912,0.032 0.0427,0.0213 0.0693,0.0427 0.08,0.064 0.27733,0.46934 0.88533,0.62934 1.824,0.48 0.37333,-0.0213 0.65066,-0.15999 0.832,-0.416 0.10666,-0.14933 0.13866,-0.30933 0.096,-0.48 -0.14934,-0.21333 -0.46933,-0.31999 -0.96,-0.32 -1.07733,0.0427 -1.81333,-0.17066 -2.208,-0.64 -0.448,-0.44799 -0.576,-1.03466 -0.384,-1.76 0.0853,-0.46932 0.304,-0.88532 0.656,-1.248 0.62933,-0.68266 1.488,-1.01332 2.576,-0.992 l 0.064,0"
           style=""
           id="path4522" />
        <path
           d="m 398.29016,352.34428 c -0.64,10e-6 -1.25333,0.18134 -1.84,0.544 -1.088,0.64001 -1.78133,1.71734 -2.08,3.232 -0.30933,1.42934 -0.128,2.48534 0.544,3.168 0.49067,0.42667 1.10933,0.64 1.856,0.64 0.66133,0 1.29066,-0.17066 1.888,-0.512 1.088,-0.64 1.792,-1.73866 2.112,-3.296 0.28799,-1.45066 0.0213,-2.53866 -0.8,-3.264 -0.43734,-0.34132 -0.99734,-0.51199 -1.68,-0.512 m -2.288,3.904 0.032,-0.128 c 0.18133,-0.91732 0.53333,-1.52532 1.056,-1.824 0.29867,-0.17066 0.58666,-0.25599 0.864,-0.256 1.04533,1e-5 1.42933,0.69334 1.152,2.08 -0.288,1.42934 -0.95467,2.14401 -2,2.144 -1.00267,1e-5 -1.37067,-0.67199 -1.104,-2.016"
           style=""
           id="path4524" />
        <path
           d="m 403.73691,352.31228 c 0.23467,1e-5 0.432,0.0853 0.592,0.256 0.13867,0.17068 0.18133,0.38401 0.128,0.64 l -0.736,3.648 c -0.0533,0.29867 -0.048,0.54401 0.016,0.736 0.096,0.27734 0.24,0.45867 0.432,0.544 0.18133,0.064 0.38933,0.096 0.624,0.096 0.53333,10e-6 0.928,-0.15999 1.184,-0.48 l 0.128,-0.16 c 0.16,-0.23466 0.26133,-0.47999 0.304,-0.736 l 0.736,-3.648 c 0.064,-0.34132 0.26133,-0.59732 0.592,-0.768 0.34133,-0.17066 0.624,-0.17066 0.848,0 0.25599,0.17068 0.35199,0.42668 0.288,0.768 l -0.736,3.648 c -0.416,1.47201 -1.26934,2.432 -2.56,2.88 -0.36267,0.128 -0.736,0.192 -1.12,0.192 -1.024,0 -1.74933,-0.384 -2.176,-1.152 -0.0747,-0.128 -0.13867,-0.26666 -0.192,-0.416 -0.16,-0.49066 -0.192,-0.99199 -0.096,-1.504 l 0.736,-3.648 c 0.0747,-0.38399 0.288,-0.65066 0.64,-0.8 0.11733,-0.064 0.24,-0.096 0.368,-0.096"
           style=""
           id="path4526" />
        <path
           d="m 413.60191,352.31228 c 1.17333,1e-5 1.95733,0.52268 2.352,1.568 0.10666,0.32001 0.0427,0.62934 -0.192,0.928 -0.24534,0.27734 -0.53867,0.40534 -0.88,0.384 -0.33067,-0.0427 -0.528,-0.22399 -0.592,-0.544 -0.0853,-0.29866 -0.24,-0.47999 -0.464,-0.544 -0.16,-0.0427 -0.34667,-0.064 -0.56,-0.064 -0.55467,1e-5 -0.96,0.14934 -1.216,0.448 -0.032,0.0427 -0.0747,0.096 -0.128,0.16 -0.14933,0.23468 -0.26133,0.48001 -0.336,0.736 l -0.736,3.68 c -0.064,0.32 -0.24,0.56534 -0.528,0.736 -0.34133,0.17067 -0.63467,0.17067 -0.88,0 -0.23466,-0.17066 -0.32,-0.416 -0.256,-0.736 l 0.736,-3.68 c 0.39467,-1.47199 1.232,-2.42132 2.512,-2.848 0.37333,-0.14932 0.76266,-0.22399 1.168,-0.224"
           style=""
           id="path4528" />
        <path
           d="m 420.85266,352.31228 c 0.66133,1e-5 1.22666,0.17068 1.696,0.512 0.23466,0.19201 0.32,0.44801 0.256,0.768 -0.10667,0.34134 -0.32534,0.58668 -0.656,0.736 -0.32,0.12801 -0.592,0.096 -0.816,-0.096 -0.20267,-0.12799 -0.47467,-0.19199 -0.816,-0.192 -0.27734,1e-5 -0.56,0.0747 -0.848,0.224 -0.53333,0.32001 -0.89067,0.92801 -1.072,1.824 l 0,0.032 c -0.192,0.96001 -0.096,1.58934 0.288,1.888 0.20267,0.14934 0.464,0.22401 0.784,0.224 0.34133,10e-6 0.64533,-0.0747 0.912,-0.224 0.29866,-0.21333 0.58133,-0.24533 0.848,-0.096 0.26666,0.14934 0.38933,0.39467 0.368,0.736 -0.064,0.34134 -0.25067,0.58667 -0.56,0.736 -0.608,0.36267 -1.24267,0.544 -1.904,0.544 -0.66133,0 -1.20533,-0.17066 -1.632,-0.512 -0.85333,-0.61866 -1.12,-1.72799 -0.8,-3.328 0.27733,-1.36532 0.896,-2.38932 1.856,-3.072 0.62933,-0.46932 1.328,-0.70399 2.096,-0.704"
           style=""
           id="path4530" />
        <path
           d="m 426.53216,358.16828 -0.288,0 c -0.68267,-0.10666 -1.024,-0.52266 -1.024,-1.248 l 3.488,0 c 0.384,1e-5 0.672,-0.17066 0.864,-0.512 0.064,-0.10666 0.10666,-0.21333 0.128,-0.32 l 0.064,-0.32 c 0.29866,-1.49332 0,-2.55999 -0.896,-3.2 -0.34134,-0.21332 -0.75734,-0.31999 -1.248,-0.32 -0.66134,10e-6 -1.28533,0.18134 -1.872,0.544 -1.056,0.61868 -1.76533,1.65334 -2.128,3.104 -0.0427,0.12801 -0.064,0.24534 -0.064,0.352 -0.21333,1.38667 0.08,2.42134 0.88,3.104 0.43733,0.36267 0.92267,0.544 1.456,0.544 0.74667,0.0213 1.28533,0 1.616,-0.064 0.46933,-0.10666 0.88,-0.288 1.232,-0.544 0.32,-0.192 0.48,-0.448 0.48,-0.768 0.0213,-0.34133 -0.096,-0.57599 -0.352,-0.704 -0.29867,-0.10666 -0.59734,-0.0533 -0.896,0.16 -0.21334,0.12801 -0.69334,0.19201 -1.44,0.192 m 0.704,-4.192 c 0.21333,1e-5 0.38933,0.0427 0.528,0.128 0.30933,0.17068 0.45333,0.52268 0.432,1.056 l -0.016,0.064 -2.624,0 c 0.18133,-0.46932 0.464,-0.82132 0.848,-1.056 0.256,-0.12799 0.48,-0.19199 0.672,-0.192 l 0.096,0 0.064,0"
           style=""
           id="path4532" />
        <path
           d="m 437.98166,352.34428 c 0.32,-0.0213 0.53867,0.11734 0.656,0.416 0.0427,0.10668 0.048,0.22401 0.016,0.352 l -0.656,3.296 -0.176,1.024 c -0.0107,0.14934 0.005,0.28801 0.048,0.416 0.064,0.32001 0.42133,0.44801 1.072,0.384 0.352,-0.0213 0.61867,-0.27733 0.8,-0.768 0.0213,-0.0213 0.0373,-0.0427 0.048,-0.064 l 0.32,-1.44 0,-0.064 c 0.128,-0.29866 0.37333,-0.50133 0.736,-0.608 0.288,-0.064 0.52266,-0.0107 0.704,0.16 0.20266,0.17067 0.24533,0.49067 0.128,0.96 l -0.176,1.024 c -0.0107,0.14934 0.005,0.28801 0.048,0.416 0.0533,0.27734 0.41066,0.40534 1.072,0.384 0.35199,-0.0213 0.61866,-0.27733 0.8,-0.768 0.032,-0.0427 0.048,-0.0747 0.048,-0.096 l 0.784,-3.936 c 0.0533,-0.49066 0.26133,-0.82132 0.624,-0.992 0.33066,-0.19199 0.63466,-0.17066 0.912,0.064 0.18133,0.14934 0.26133,0.34134 0.24,0.576 l -0.768,3.776 c -0.13867,0.91734 -0.48534,1.64267 -1.04,2.176 -0.62934,0.61867 -1.38134,0.928 -2.256,0.928 -0.72534,-0.0213 -1.29067,-0.256 -1.696,-0.704 -0.72533,0.55467 -1.504,0.77867 -2.336,0.672 -0.352,-0.0427 -0.66133,-0.14933 -0.928,-0.32 -0.59733,-0.34133 -0.90133,-0.896 -0.912,-1.664 -0.0107,-0.14933 -0.005,-0.29866 0.016,-0.448 l 0.832,-4.16 c 0.0107,-0.36266 0.18667,-0.65066 0.528,-0.864 0.17067,-0.10666 0.34133,-0.14932 0.512,-0.128"
           style=""
           id="path4534" />
        <path
           d="m 449.43841,358.16828 -0.288,0 c -0.68267,-0.10666 -1.024,-0.52266 -1.024,-1.248 l 3.488,0 c 0.384,1e-5 0.672,-0.17066 0.864,-0.512 0.064,-0.10666 0.10666,-0.21333 0.128,-0.32 l 0.064,-0.32 c 0.29866,-1.49332 0,-2.55999 -0.896,-3.2 -0.34134,-0.21332 -0.75734,-0.31999 -1.248,-0.32 -0.66134,10e-6 -1.28533,0.18134 -1.872,0.544 -1.056,0.61868 -1.76533,1.65334 -2.128,3.104 -0.0427,0.12801 -0.064,0.24534 -0.064,0.352 -0.21333,1.38667 0.08,2.42134 0.88,3.104 0.43733,0.36267 0.92267,0.544 1.456,0.544 0.74667,0.0213 1.28533,0 1.616,-0.064 0.46933,-0.10666 0.88,-0.288 1.232,-0.544 0.32,-0.192 0.48,-0.448 0.48,-0.768 0.0213,-0.34133 -0.096,-0.57599 -0.352,-0.704 -0.29867,-0.10666 -0.59734,-0.0533 -0.896,0.16 -0.21334,0.12801 -0.69334,0.19201 -1.44,0.192 m 0.704,-4.192 c 0.21333,1e-5 0.38933,0.0427 0.528,0.128 0.30933,0.17068 0.45333,0.52268 0.432,1.056 l -0.016,0.064 -2.624,0 c 0.18133,-0.46932 0.464,-0.82132 0.848,-1.056 0.256,-0.12799 0.48,-0.19199 0.672,-0.192 l 0.096,0 0.064,0"
           style=""
           id="path4536" />
        <path
           d="m 456.42566,359.92828 0.128,0 0,0 c 0.512,-0.0213 1.03466,-0.192 1.568,-0.512 0.87466,-0.512 1.51466,-1.35466 1.92,-2.528 0.0853,-0.23466 0.16,-0.49066 0.224,-0.768 0.26666,-1.34399 0.064,-2.35732 -0.608,-3.04 -0.45867,-0.49066 -1.02934,-0.73599 -1.712,-0.736 -0.52267,0.064 -0.992,0.17068 -1.408,0.32 l 0.48,-2.4 c 0.0533,-0.25599 0.005,-0.45865 -0.144,-0.608 -0.128,-0.19199 -0.30933,-0.28799 -0.544,-0.288 -0.36267,10e-6 -0.64,0.17068 -0.832,0.512 -0.0853,0.10668 -0.144,0.23468 -0.176,0.384 l -1.232,6.176 c -0.30933,1.51467 0,2.57067 0.928,3.168 0.43733,0.256 0.90667,0.36267 1.408,0.32 m -0.64,-3.488 0.208,-1.056 c 0.096,-0.51199 0.31467,-0.86399 0.656,-1.056 0.0427,-0.0213 0.112,-0.0533 0.208,-0.096 0.26666,-0.12799 0.51733,-0.19199 0.752,-0.192 0.24533,0.0427 0.44266,0.11734 0.592,0.224 0.42666,0.32001 0.544,0.93868 0.352,1.856 -0.18134,0.91734 -0.54934,1.54667 -1.104,1.888 -0.24534,0.14934 -0.47467,0.23467 -0.688,0.256 l -0.096,0 c -0.704,1e-5 -1.02933,-0.40533 -0.976,-1.216 0.0213,-0.19199 0.0533,-0.39466 0.096,-0.608"
           style=""
           id="path4538" />
        <path
           d="m 464.82091,352.28028 c 0.61866,10e-6 1.12533,0.11734 1.52,0.352 0.65066,0.40534 0.86933,0.86401 0.656,1.376 -0.10667,0.32001 -0.352,0.53334 -0.736,0.64 -0.34134,0.0853 -0.592,0.0107 -0.752,-0.224 -0.21334,-0.44799 -0.656,-0.62932 -1.328,-0.544 -0.0427,10e-6 -0.08,0.0107 -0.112,0.032 -0.37333,0.0427 -0.656,0.22401 -0.848,0.544 -0.096,0.17068 -0.10667,0.35201 -0.032,0.544 0.21333,0.17068 0.61333,0.24534 1.2,0.224 0.34133,10e-6 0.592,0.0213 0.752,0.064 0.672,0.064 1.15733,0.40534 1.456,1.024 0.20266,0.38401 0.25066,0.80001 0.144,1.248 -0.11734,0.68267 -0.512,1.248 -1.184,1.696 -0.26667,0.17067 -0.53334,0.29867 -0.8,0.384 -1.20533,0.36267 -2.208,0.36267 -3.008,0 -0.64,-0.34133 -0.976,-0.74666 -1.008,-1.216 -0.0107,-0.36266 0.18667,-0.65066 0.592,-0.864 0.384,-0.21333 0.688,-0.20266 0.912,0.032 0.0427,0.0213 0.0693,0.0427 0.08,0.064 0.27733,0.46934 0.88533,0.62934 1.824,0.48 0.37333,-0.0213 0.65066,-0.15999 0.832,-0.416 0.10666,-0.14933 0.13866,-0.30933 0.096,-0.48 -0.14934,-0.21333 -0.46933,-0.31999 -0.96,-0.32 -1.07733,0.0427 -1.81333,-0.17066 -2.208,-0.64 -0.448,-0.44799 -0.576,-1.03466 -0.384,-1.76 0.0853,-0.46932 0.304,-0.88532 0.656,-1.248 0.62933,-0.68266 1.488,-1.01332 2.576,-0.992 l 0.064,0"
           style=""
           id="path4540" />
        <path
           d="m 470.48591,349.24028 c -0.37333,0.0427 -0.65067,0.23468 -0.832,0.576 -0.0533,0.0854 -0.0907,0.18135 -0.112,0.288 l -0.032,0.128 c -0.064,0.32001 0.0267,0.56535 0.272,0.736 0.24533,0.17068 0.53333,0.17068 0.864,0 0.30933,-0.17065 0.496,-0.41599 0.56,-0.736 l 0.032,-0.128 c 0.0533,-0.25599 0,-0.47999 -0.16,-0.672 -0.16,-0.17065 -0.35733,-0.23465 -0.592,-0.192 m -0.56,3.072 c -0.36267,1e-5 -0.64,0.17068 -0.832,0.512 -0.0853,0.10668 -0.144,0.22401 -0.176,0.352 l -1.168,5.888 c -0.064,0.32 0.0213,0.56534 0.256,0.736 0.24533,0.17067 0.53867,0.17067 0.88,0 0.30933,-0.17066 0.496,-0.416 0.56,-0.736 l 1.168,-5.888 c 0.0533,-0.23466 0.0107,-0.43732 -0.128,-0.608 -0.11733,-0.17066 -0.304,-0.25599 -0.56,-0.256"
           style=""
           id="path4542" />
        <path
           d="m 474.51916,349.30428 c 0.256,10e-6 0.448,0.0854 0.576,0.256 0.13866,0.17068 0.176,0.37335 0.112,0.608 l -0.448,2.208 1.056,0 c 0.34133,10e-6 0.57066,0.14934 0.688,0.448 0.11733,0.25601 0.0587,0.53334 -0.176,0.832 -0.224,0.29868 -0.50667,0.43734 -0.848,0.416 l -1.056,0 -0.656,3.328 c -0.064,0.32001 -0.0533,0.53334 0.032,0.64 0.0427,0.0853 0.13867,0.13867 0.288,0.16 0.14933,0.064 0.36267,0.0533 0.64,-0.032 0.36266,-0.10666 0.64533,-0.032 0.848,0.224 0.17066,0.21334 0.18133,0.49067 0.032,0.832 -0.14934,0.32 -0.39467,0.52267 -0.736,0.608 l -0.624,0.096 c -0.94933,0.064 -1.6,-0.192 -1.952,-0.768 -0.29867,-0.448 -0.37333,-1.03466 -0.224,-1.76 l 0.656,-3.328 -0.512,0 c -0.34133,0.0213 -0.56,-0.11732 -0.656,-0.416 -0.10667,-0.29866 -0.048,-0.57599 0.176,-0.832 0.20267,-0.29866 0.47467,-0.44799 0.816,-0.448 l 0.512,0 0.448,-2.208 c 0.064,-0.34132 0.26667,-0.60799 0.608,-0.8 0.13867,-0.0427 0.272,-0.064 0.4,-0.064"
           style=""
           id="path4544" />
        <path
           d="m 479.93841,358.16828 -0.288,0 c -0.68267,-0.10666 -1.024,-0.52266 -1.024,-1.248 l 3.488,0 c 0.384,1e-5 0.672,-0.17066 0.864,-0.512 0.064,-0.10666 0.10666,-0.21333 0.128,-0.32 l 0.064,-0.32 c 0.29866,-1.49332 0,-2.55999 -0.896,-3.2 -0.34134,-0.21332 -0.75734,-0.31999 -1.248,-0.32 -0.66134,10e-6 -1.28533,0.18134 -1.872,0.544 -1.056,0.61868 -1.76533,1.65334 -2.128,3.104 -0.0427,0.12801 -0.064,0.24534 -0.064,0.352 -0.21333,1.38667 0.08,2.42134 0.88,3.104 0.43733,0.36267 0.92267,0.544 1.456,0.544 0.74667,0.0213 1.28533,0 1.616,-0.064 0.46933,-0.10666 0.88,-0.288 1.232,-0.544 0.32,-0.192 0.48,-0.448 0.48,-0.768 0.0213,-0.34133 -0.096,-0.57599 -0.352,-0.704 -0.29867,-0.10666 -0.59734,-0.0533 -0.896,0.16 -0.21334,0.12801 -0.69334,0.19201 -1.44,0.192 m 0.704,-4.192 c 0.21333,1e-5 0.38933,0.0427 0.528,0.128 0.30933,0.17068 0.45333,0.52268 0.432,1.056 l -0.016,0.064 -2.624,0 c 0.18133,-0.46932 0.464,-0.82132 0.848,-1.056 0.256,-0.12799 0.48,-0.19199 0.672,-0.192 l 0.096,0 0.064,0"
           style=""
           id="path4546" />
      </g>
    </g>
  </g>
</svg>
